<svg width="70" height="70" viewBox="0 0 70 70" fill="none" xmlns="http://www.w3.org/2000/svg">
<g clip-path="url(#clip0_812_14204)">
<mask id="mask0_812_14204" style="mask-type:luminance" maskUnits="userSpaceOnUse" x="0" y="0" width="70" height="70">
<path d="M0 0H70V70H0V0Z" fill="white"/>
</mask>
<g mask="url(#mask0_812_14204)">
<path d="M61.25 61.25V59.9375C61.25 57.0879 61.25 55.6646 60.9204 54.5008C60.514 53.06 59.7447 51.7475 58.6861 50.6889C57.6275 49.6303 56.315 48.861 54.8742 48.4546C53.7104 48.125 52.2871 48.125 49.4375 48.125H36.6042C33.7546 48.125 32.3313 48.125 31.1675 48.4546C29.7266 48.861 28.4141 49.6303 27.3555 50.6889C26.2969 51.7475 25.5276 53.06 25.1213 54.5008C24.7917 55.6646 24.7917 57.0879 24.7917 59.9375V61.25M8.75 51.0417V46.375C8.75 43.9337 8.75 42.7146 8.99208 41.7083C9.36874 40.139 10.1721 38.7044 11.3133 37.5633C12.4545 36.4221 13.889 35.6187 15.4583 35.2421C16.4646 35 17.6838 35 20.125 35H20.4167" stroke="black" stroke-width="2" stroke-linecap="round" stroke-linejoin="round"/>
<path d="M53.9584 27.7083C53.9584 30.4158 52.8829 33.0123 50.9685 34.9267C49.054 36.8411 46.4575 37.9167 43.7501 37.9167C41.0427 37.9167 38.4461 36.8411 36.5317 34.9267C34.6173 33.0123 33.5417 30.4158 33.5417 27.7083C33.5417 25.0009 34.6173 22.4044 36.5317 20.49C38.4461 18.5755 41.0427 17.5 43.7501 17.5C46.4575 17.5 49.054 18.5755 50.9685 20.49C52.8829 22.4044 53.9584 25.0009 53.9584 27.7083Z" stroke="black" stroke-width="2"/>
<path d="M32.0833 12.775C30.3741 10.3483 27.4487 8.75 24.1295 8.75C18.8562 8.75 14.5833 12.7808 14.5833 17.7567C14.5833 21.6767 17.2374 25.0133 20.9474 26.25" stroke="black" stroke-width="2" stroke-linecap="round"/>
</g>
</g>
<defs>
<clipPath id="clip0_812_14204">
<rect width="70" height="70" fill="white"/>
</clipPath>
</defs>
</svg>
