<svg width="17" height="16" viewBox="0 0 17 16" fill="none" xmlns="http://www.w3.org/2000/svg">
<path d="M8.81848 14.6666C7.6325 14.6664 6.46806 14.3497 5.44526 13.7494C4.42245 13.149 3.57832 12.2867 2.99992 11.2513C2.42151 10.216 2.12978 9.04502 2.15481 7.85931C2.17983 6.67359 2.52071 5.51602 3.14229 4.50597C3.76386 3.49593 4.64363 2.66998 5.69085 2.11332C6.73807 1.55665 7.91483 1.28943 9.09977 1.3392C10.2847 1.38898 11.4349 1.75395 12.4318 2.39648C13.4286 3.039 14.236 3.93582 14.7707 4.99443C14.8062 5.0598 14.8282 5.13164 14.8355 5.20568C14.8427 5.27972 14.835 5.35446 14.8128 5.42546C14.7906 5.49646 14.7543 5.56228 14.7062 5.61902C14.6581 5.67575 14.5991 5.72225 14.5327 5.75574C14.4662 5.78923 14.3938 5.80904 14.3195 5.814C14.2453 5.81895 14.1708 5.80894 14.1005 5.78457C14.0303 5.7602 13.9656 5.72196 13.9103 5.67212C13.8551 5.62228 13.8105 5.56186 13.779 5.49443C13.216 4.37956 12.2936 3.48694 11.1609 2.96066C10.0282 2.43439 8.75122 2.30515 7.53604 2.59382C6.32086 2.88249 5.2384 3.57222 4.46339 4.55169C3.68837 5.53115 3.26602 6.7432 3.2645 7.99219C3.26298 9.24119 3.68238 10.4543 4.45501 11.4356C5.22764 12.417 6.30841 13.1093 7.52288 13.4009C8.73736 13.6926 10.0147 13.5664 11.1487 13.0429C12.2826 12.5194 13.2071 11.629 13.7729 10.5155C13.8423 10.3889 13.9584 10.2942 14.0965 10.2516C14.2345 10.2091 14.3837 10.222 14.5124 10.2876C14.6411 10.3532 14.7392 10.4664 14.7859 10.6031C14.8325 10.7399 14.8241 10.8894 14.7624 11.02C14.2071 12.1191 13.3571 13.0422 12.3075 13.6861C11.2579 14.3301 10.0499 14.6696 8.81848 14.6666Z" fill="#FDFDFD"/>
</svg>
