<svg width="27" height="26" viewBox="0 0 27 26" fill="none" xmlns="http://www.w3.org/2000/svg">
<mask id="mask0_812_4099" style="mask-type:luminance" maskUnits="userSpaceOnUse" x="0" y="0" width="27" height="26">
<path d="M0.53125 0.242188H26.2572V25.9681H0.53125V0.242188Z" fill="white"/>
</mask>
<g mask="url(#mask0_812_4099)">
<path d="M4.9536 21.5488L4.4498 22.4953C4.50018 22.521 4.5527 22.5446 4.6063 22.5628L4.9536 21.5488ZM21.9702 11.8233C21.9702 13.9028 21.0591 15.575 19.5552 16.7541C18.032 17.9482 15.8657 18.6536 13.3949 18.6536V20.7974C16.2526 20.7974 18.9099 19.9827 20.8769 18.4413C22.8664 16.8838 24.1141 14.6049 24.1141 11.8233H21.9702ZM4.81961 11.8233C4.81961 10.134 5.68465 8.60758 7.21427 7.46706C8.75139 6.32226 10.9295 5.60086 13.3949 5.60086V3.45703C10.5318 3.45703 7.88743 4.29205 5.93333 5.74878C3.97173 7.20873 2.67578 9.33005 2.67578 11.8233H4.81961ZM13.3949 5.60086C15.915 5.60086 18.091 6.17862 19.6045 7.23231C21.0763 8.25706 21.9702 9.75882 21.9702 11.8233H24.1141C24.1141 9.02456 22.8492 6.87965 20.8287 5.4733C18.851 4.09482 16.2033 3.45703 13.3949 3.45703V5.60086ZM6.91092 16.2085C5.59246 15.0509 4.81961 13.4237 4.81961 11.8233H2.67578C2.67578 14.1011 3.76056 16.2975 5.49706 17.8196L6.91092 16.2085ZM13.3949 18.6536C12.4474 18.6536 11.5298 18.3706 10.4654 18.0747L9.89298 20.1403C10.8395 20.4029 12.0872 20.7974 13.3949 20.7974V18.6536ZM10.4654 18.0747C9.95515 17.9332 9.5221 18.1315 9.31629 18.243C9.08261 18.3716 8.86287 18.5464 8.68386 18.6986C8.49842 18.8551 8.29583 19.0416 8.10824 19.2131C7.91208 19.39 7.71592 19.5668 7.51226 19.7351C6.63007 20.4619 5.94083 20.7534 5.3009 20.5348L4.6063 22.5628C6.42212 23.1845 7.95496 22.148 8.87573 21.3891C9.12227 21.1854 9.35059 20.9818 9.54997 20.7995C9.75792 20.6109 9.92192 20.4597 10.072 20.3322C10.2274 20.2003 10.31 20.1435 10.3443 20.1242C10.4086 20.0899 10.2081 20.2271 9.89298 20.1403L10.4654 18.0747ZM5.4574 20.6034C5.64182 20.7006 5.78577 20.8602 5.86365 21.0536C5.91511 21.1854 5.91296 21.2819 5.91296 21.2948C5.91296 21.3141 5.91296 21.2562 5.9687 21.0804C6.07482 20.7449 6.27205 20.2925 6.51002 19.7598C6.73083 19.2635 6.98916 18.6911 7.15317 18.2162C7.23249 17.9825 7.31396 17.7049 7.34075 17.4348C7.36005 17.2472 7.404 16.6405 6.91092 16.2085L5.49706 17.8196C5.13582 17.5034 5.21836 17.1121 5.20764 17.2193C5.18931 17.322 5.16168 17.4229 5.12511 17.5205C4.99969 17.8839 4.79067 18.3513 4.55163 18.8872C4.32867 19.3868 4.07463 19.9592 3.92456 20.4362C3.85167 20.6655 3.77449 20.9593 3.76913 21.2508C3.76377 21.4974 3.81094 22.1555 4.4498 22.4953L5.4574 20.6034ZM10.1792 12.0323C10.1792 12.3166 10.0662 12.5893 9.86523 12.7903C9.6642 12.9913 9.39156 13.1043 9.10727 13.1043C8.82298 13.1043 8.55033 12.9913 8.34931 12.7903C8.14829 12.5893 8.03535 12.3166 8.03535 12.0323C8.03535 11.7481 8.14829 11.4754 8.34931 11.2744C8.55033 11.0734 8.82298 10.9604 9.10727 10.9604C9.39156 10.9604 9.6642 11.0734 9.86523 11.2744C10.0662 11.4754 10.1792 11.7481 10.1792 12.0323ZM14.4668 12.0323C14.4668 12.3166 14.3539 12.5893 14.1529 12.7903C13.9519 12.9913 13.6792 13.1043 13.3949 13.1043C13.1106 13.1043 12.838 12.9913 12.637 12.7903C12.4359 12.5893 12.323 12.3166 12.323 12.0323C12.323 11.7481 12.4359 11.4754 12.637 11.2744C12.838 11.0734 13.1106 10.9604 13.3949 10.9604C13.6792 10.9604 13.9519 11.0734 14.1529 11.2744C14.3539 11.4754 14.4668 11.7481 14.4668 12.0323ZM18.7545 12.0323C18.7545 12.3166 18.6416 12.5893 18.4405 12.7903C18.2395 12.9913 17.9669 13.1043 17.6826 13.1043C17.3983 13.1043 17.1256 12.9913 16.9246 12.7903C16.7236 12.5893 16.6107 12.3166 16.6107 12.0323C16.6107 11.7481 16.7236 11.4754 16.9246 11.2744C17.1256 11.0734 17.3983 10.9604 17.6826 10.9604C17.9669 10.9604 18.2395 11.0734 18.4405 11.2744C18.6416 11.4754 18.7545 11.7481 18.7545 12.0323Z" fill="#33246A"/>
</g>
</svg>
